<?xml version="1.0" encoding="UTF-8"?> <svg xmlns="http://www.w3.org/2000/svg" width="239" height="41" viewBox="0 0 239 41" fill="none"> <path fill-rule="evenodd" clip-rule="evenodd" d="M35.124 24.5C34.409 24.952 33.567 25.008 32.927 24.647C32.114 24.188 31.667 23.113 31.667 21.618V17.145C31.667 14.985 30.813 13.448 29.385 13.033C26.965 12.328 25.145 15.289 24.461 16.401L20.193 23.321V14.863C20.145 12.917 19.513 11.753 18.313 11.402C17.519 11.17 16.331 11.263 15.177 13.029L5.615 28.383C4.33488 25.9528 3.66755 23.2467 3.671 20.5C3.671 11.251 11.083 3.727 20.193 3.727C29.303 3.727 36.714 11.251 36.714 20.5C36.714 20.516 36.718 20.53 36.719 20.545C36.719 20.561 36.716 20.575 36.717 20.591C36.803 22.382 36.223 23.807 35.124 24.501V24.5ZM40.385 20.501V20.5V20.454L40.384 20.408C40.333 9.144 31.296 0 20.192 0C9.059 0 0 9.196 0 20.5C0 31.803 9.059 41 20.193 41C25.302 41 30.178 39.058 33.921 35.533C34.665 34.833 34.709 33.654 34.019 32.9C33.8566 32.7209 33.6601 32.576 33.441 32.4739C33.2219 32.3717 32.9846 32.3142 32.743 32.3049C32.5014 32.2956 32.2604 32.3346 32.0341 32.4196C31.8078 32.5046 31.6007 32.6339 31.425 32.8C28.3911 35.673 24.3714 37.2738 20.193 37.273C15.315 37.273 10.926 35.114 7.899 31.69L16.522 17.844V24.227C16.522 27.293 17.711 28.284 18.708 28.574C19.706 28.864 21.231 28.666 22.832 26.066L27.575 18.377C27.727 18.129 27.867 17.915 27.995 17.73V21.618C27.995 24.484 29.143 26.776 31.144 27.905C32.948 28.923 35.216 28.831 37.064 27.665C39.304 26.25 40.511 23.643 40.385 20.501V20.501ZM68.498 13.497C68.983 13.792 69.403 14.448 69.403 15.039C69.403 15.99 68.595 16.777 67.69 16.777C67.464 16.777 67.238 16.712 67.044 16.646C65.977 15.859 64.62 15.334 63.198 15.334C59.838 15.334 57.511 18.089 57.511 21.5C57.511 24.912 59.838 27.634 63.198 27.634C64.878 27.634 66.365 26.945 67.496 25.896C67.7882 25.686 68.1382 25.5714 68.498 25.568C69.403 25.568 70.114 26.289 70.114 27.208C70.114 27.798 69.758 28.323 69.306 28.618C67.69 29.996 65.493 30.914 63.231 30.914C58.061 30.914 53.859 26.65 53.859 21.402C53.859 16.154 58.06 11.89 63.231 11.89C65.17 11.89 67.011 12.48 68.498 13.497V13.497ZM77.952 17.466C81.474 17.466 84.447 20.451 84.447 24.124C84.447 27.798 81.474 30.914 77.952 30.914C74.268 30.914 71.198 27.798 71.198 24.124C71.198 20.451 74.268 17.466 77.952 17.466ZM77.919 27.634C79.471 27.634 80.795 26.158 80.795 24.157C80.795 22.157 79.471 20.91 77.919 20.91C76.239 20.91 74.849 22.124 74.849 24.157C74.849 26.158 76.239 27.634 77.919 27.634ZM86.662 28.88V19.5C86.662 18.483 87.47 17.63 88.472 17.63C89.474 17.63 90.314 18.483 90.314 19.5V28.88C90.314 29.897 89.474 30.75 88.472 30.75C87.47 30.75 86.662 29.897 86.662 28.88V28.88ZM86.372 14.088C86.372 12.874 87.308 11.89 88.472 11.89C89.667 11.89 90.637 12.874 90.637 14.088C90.637 15.268 89.667 16.22 88.472 16.22C87.308 16.22 86.372 15.268 86.372 14.088ZM97.312 23.796V28.88C97.312 29.897 96.472 30.75 95.469 30.75C94.468 30.75 93.659 29.897 93.659 28.88V19.073C93.659 18.286 94.306 17.63 95.082 17.63C95.857 17.63 96.472 18.286 96.472 19.073C97.958 17.696 99.25 17.466 100.478 17.466C104.13 17.466 105.746 20.221 105.746 23.337V28.88C105.746 29.897 104.906 30.75 103.904 30.75C102.902 30.75 102.094 29.897 102.094 28.88V23.796C102.094 22.189 101.9 20.844 99.606 20.844C97.99 20.844 97.311 22.189 97.311 23.796H97.312ZM117.623 25.732C117.203 25.732 116.913 25.535 116.686 25.272L112.42 20.648V28.88C112.42 29.897 111.58 30.75 110.578 30.75C109.576 30.75 108.768 29.897 108.768 28.88V12.58C108.82 12.4427 108.914 12.3248 109.035 12.2425C109.157 12.1602 109.301 12.1174 109.448 12.12C109.77 12.12 110.028 12.383 110.223 12.58L117.009 20.222C117.203 20.452 117.461 20.583 117.591 20.583C117.72 20.583 117.978 20.452 118.172 20.223L124.959 12.58C125.153 12.383 125.411 12.12 125.734 12.12C126.057 12.12 126.316 12.317 126.413 12.58V28.88C126.413 29.897 125.605 30.75 124.603 30.75C123.601 30.75 122.761 29.897 122.761 28.88V20.648L118.496 25.272C118.269 25.535 117.978 25.732 117.623 25.732V25.732ZM135.188 27.634C136.836 27.634 138.225 26.158 138.225 24.157C138.225 22.157 136.804 20.844 135.188 20.844C133.572 20.844 132.279 22.189 132.279 24.157C132.279 26.092 133.572 27.634 135.188 27.634ZM139.066 29.307L139 28.88C138.29 30.29 136.027 30.914 134.573 30.914C131.147 30.914 128.627 27.798 128.627 24.124C128.627 20.451 131.212 17.466 134.767 17.466C135.381 17.466 137.417 17.63 139 19.5L139.065 19.073C139.065 18.286 139.679 17.63 140.455 17.63C141.23 17.63 141.876 18.286 141.876 19.073V29.307C141.876 30.094 141.23 30.75 140.454 30.75C139.679 30.75 139.064 30.094 139.064 29.307H139.066ZM152.009 20.844H151.622C149.327 20.976 148.875 22.288 148.875 23.796V28.88C148.875 29.897 148.035 30.75 147.033 30.75C146.031 30.75 145.223 29.897 145.223 28.88V19.073C145.223 18.286 145.869 17.63 146.645 17.63C147.421 17.63 148.035 18.286 148.035 19.073C149.392 17.794 150.491 17.532 151.622 17.466H151.977C152.85 17.466 153.657 18.22 153.657 19.172C153.657 20.057 152.882 20.844 152.009 20.844V20.844ZM166.084 28.028C166.246 28.29 166.343 28.585 166.343 28.913C166.343 29.864 165.47 30.75 164.533 30.75C163.887 30.75 163.337 30.258 162.917 29.733L158.717 24.846V28.88C158.717 29.897 157.876 30.75 156.874 30.75C155.872 30.75 155.064 29.897 155.064 28.88V13.99C155.064 12.972 155.872 12.12 156.874 12.12C157.876 12.12 158.716 12.972 158.716 13.99V23.272L162.917 18.614C163.337 18.122 163.854 17.63 164.501 17.63C165.406 17.63 166.246 18.483 166.246 19.434C166.246 19.729 166.181 20.024 166.019 20.287L162.691 23.927L166.084 28.027V28.028ZM173.244 20.91C172.242 20.91 170.626 21.435 170.626 22.976H175.893C175.893 21.402 174.213 20.91 173.243 20.91H173.244ZM178.026 25.305H170.626C170.626 27.503 172.726 27.831 173.663 27.831C174.343 27.831 175.312 27.7 176.055 27.371C176.281 27.208 176.669 27.076 176.992 27.076C177.8 27.076 178.478 27.766 178.478 28.586C178.478 29.143 178.123 29.635 177.671 29.897C176.54 30.717 175.085 30.914 173.696 30.914C170.012 30.914 166.942 28.914 166.942 24.288C166.942 20.648 168.816 17.466 173.179 17.466C176.701 17.466 179.383 19.762 179.448 23.862C179.448 24.649 178.802 25.305 178.026 25.305V25.305ZM188.191 30.914H187.189C184.409 30.914 182.794 29.7 182.794 25.338V20.844H181.857C180.984 20.844 180.209 20.057 180.209 19.172C180.209 18.22 180.984 17.466 181.857 17.466H182.794V13.989C182.794 12.972 183.602 12.119 184.604 12.119C185.605 12.119 186.446 12.972 186.446 13.989V17.466H187.964C188.837 17.466 189.613 18.22 189.613 19.172C189.613 20.057 188.837 20.844 187.964 20.844H186.446V24.616C186.446 27.109 186.575 27.634 187.674 27.634H188.191C189.063 27.634 189.806 28.356 189.806 29.274C189.806 30.16 189.063 30.914 188.191 30.914ZM205.885 13.497C206.369 13.792 206.79 14.448 206.79 15.039C206.79 15.99 205.982 16.777 205.077 16.777C204.851 16.777 204.624 16.712 204.431 16.646C203.364 15.859 202.007 15.334 200.585 15.334C197.225 15.334 194.897 18.089 194.897 21.5C194.897 24.912 197.224 27.634 200.585 27.634C202.265 27.634 203.752 26.945 204.883 25.896C205.175 25.686 205.525 25.5714 205.885 25.568C206.79 25.568 207.5 26.289 207.5 27.208C207.5 27.798 207.145 28.323 206.693 28.618C205.077 29.996 202.879 30.914 200.617 30.914C195.447 30.914 191.246 26.65 191.246 21.402C191.246 16.154 195.446 11.89 200.617 11.89C202.557 11.89 204.398 12.48 205.885 13.497V13.497ZM215.145 27.634C216.793 27.634 218.182 26.158 218.182 24.157C218.182 22.157 216.76 20.844 215.144 20.844C213.529 20.844 212.236 22.189 212.236 24.157C212.236 26.092 213.529 27.634 215.144 27.634H215.145ZM219.022 29.307L218.958 28.88C218.247 30.29 215.985 30.914 214.53 30.914C211.105 30.914 208.584 27.798 208.584 24.124C208.584 20.451 211.17 17.466 214.724 17.466C215.338 17.466 217.374 17.63 218.958 19.5L219.022 19.073C219.022 18.286 219.636 17.63 220.412 17.63C221.187 17.63 221.834 18.286 221.834 19.073V29.307C221.834 30.094 221.187 30.75 220.412 30.75C219.636 30.75 219.022 30.094 219.022 29.307ZM231.869 27.634C233.485 27.634 234.777 26.092 234.777 24.157C234.777 22.189 233.485 20.844 231.869 20.844C230.253 20.844 228.831 22.156 228.831 24.157C228.831 26.158 230.221 27.634 231.869 27.634ZM228.831 29.832V34.489C228.831 35.506 227.991 36.359 226.989 36.359C225.988 36.359 225.179 35.506 225.179 34.489V19.073C225.179 18.286 225.826 17.63 226.602 17.63C227.377 17.63 227.992 18.286 227.992 19.204C229.348 17.794 231.029 17.466 232.289 17.466C235.844 17.466 238.429 20.451 238.429 24.124C238.429 27.798 235.909 30.914 232.483 30.914C231.417 30.914 229.833 30.586 228.831 29.832V29.832Z" fill="white"></path> </svg> 